<?xml version="1.0" encoding="UTF-8"?> <!-- Generator: Adobe Illustrator 25.2.1, SVG Export Plug-In . SVG Version: 6.00 Build 0) --> <svg xmlns="http://www.w3.org/2000/svg" xmlns:xlink="http://www.w3.org/1999/xlink" version="1.1" id="Layer_1" x="0px" y="0px" viewBox="0 0 105.73 105.83" style="enable-background:new 0 0 105.73 105.83;" xml:space="preserve"> <style type="text/css"> .st0{fill:#E2E2E2;} </style> <path class="st0" d="M55.53,0.07C57.56,0.2,75.91,1.51,86.48,6.4c1.86,0.86,4.98,2.34,7.99,5.45c1.95,2.02,3.54,4.41,4.77,7.2 c6.44,14.59,7.39,29.91,5.85,45.47c-0.54,5.41-2.05,10.73-3.29,16.05c-2.78,11.98-10.78,18.59-22.3,21.66 c-18.25,4.88-36.44,4.91-54.59-0.47C15.27,98.89,8.15,93.41,4.9,83.39C-1.5,63.64-1.6,43.93,4.43,24.1 c1.56-5.14,4.03-9.3,7.29-12.55c1.85-1.85,5.61-5.04,15.56-8.02C33.39,1.7,43.05-0.41,55.53,0.07z"></path> <path d="M39.76,70.62c0-12.21,0-23.36,0-35.41C50.58,41.15,60.8,46.77,71.97,52.9C60.94,58.97,50.69,64.61,39.76,70.62z"></path> </svg> 