<svg width="977" height="1227" viewBox="0 0 977 1227" fill="none" xmlns="http://www.w3.org/2000/svg">
<rect width="506.143" height="289.103" transform="matrix(0.597352 -0.801979 0.808949 0.587878 376.953 514.042)" fill="url(#paint0_linear_704_221)"/>
<rect width="454.837" height="347.686" transform="matrix(0.589462 -0.807796 0.81463 0.579981 563 475.591)" fill="url(#paint1_linear_704_221)"/>
<rect width="317.089" height="289.136" transform="matrix(0.589462 -0.807796 0.81463 0.579981 651 217.143)" fill="url(#paint2_linear_704_221)"/>
<rect width="317.089" height="289.136" transform="matrix(0.589462 -0.807796 0.81463 0.579981 330 394.458)" fill="url(#paint3_linear_704_221)"/>
<rect width="506.143" height="289.103" transform="matrix(0.597352 -0.801979 0.808949 0.587878 46.9531 1057.04)" fill="url(#paint4_linear_704_221)"/>
<rect width="454.837" height="347.686" transform="matrix(0.589462 -0.807796 0.81463 0.579981 233 1018.59)" fill="url(#paint5_linear_704_221)"/>
<rect width="317.089" height="289.136" transform="matrix(0.589462 -0.807796 0.81463 0.579981 321 760.144)" fill="url(#paint6_linear_704_221)"/>
<rect width="317.089" height="289.136" transform="matrix(0.589462 -0.807796 0.81463 0.579981 0 937.458)" fill="url(#paint7_linear_704_221)"/>
<defs>
<linearGradient id="paint0_linear_704_221" x1="253.071" y1="0" x2="253.071" y2="289.103" gradientUnits="userSpaceOnUse">
<stop stop-color="#A365ED" stop-opacity="0.1"/>
<stop offset="1" stop-color="#C4C4C4" stop-opacity="0"/>
</linearGradient>
<linearGradient id="paint1_linear_704_221" x1="227.418" y1="0" x2="227.418" y2="347.686" gradientUnits="userSpaceOnUse">
<stop stop-color="#A365ED" stop-opacity="0.1"/>
<stop offset="1" stop-color="#C4C4C4" stop-opacity="0"/>
</linearGradient>
<linearGradient id="paint2_linear_704_221" x1="158.545" y1="0" x2="158.545" y2="289.136" gradientUnits="userSpaceOnUse">
<stop stop-color="#A365ED" stop-opacity="0.1"/>
<stop offset="1" stop-color="#C4C4C4" stop-opacity="0"/>
</linearGradient>
<linearGradient id="paint3_linear_704_221" x1="158.545" y1="0" x2="158.545" y2="289.136" gradientUnits="userSpaceOnUse">
<stop stop-color="#A365ED" stop-opacity="0.1"/>
<stop offset="1" stop-color="#C4C4C4" stop-opacity="0"/>
</linearGradient>
<linearGradient id="paint4_linear_704_221" x1="253.071" y1="0" x2="253.071" y2="289.103" gradientUnits="userSpaceOnUse">
<stop stop-color="#A365ED" stop-opacity="0.1"/>
<stop offset="1" stop-color="#C4C4C4" stop-opacity="0"/>
</linearGradient>
<linearGradient id="paint5_linear_704_221" x1="227.418" y1="0" x2="227.418" y2="347.686" gradientUnits="userSpaceOnUse">
<stop stop-color="#A365ED" stop-opacity="0.1"/>
<stop offset="1" stop-color="#C4C4C4" stop-opacity="0"/>
</linearGradient>
<linearGradient id="paint6_linear_704_221" x1="158.545" y1="0" x2="158.545" y2="289.136" gradientUnits="userSpaceOnUse">
<stop stop-color="#A365ED" stop-opacity="0.1"/>
<stop offset="1" stop-color="#C4C4C4" stop-opacity="0"/>
</linearGradient>
<linearGradient id="paint7_linear_704_221" x1="158.545" y1="0" x2="158.545" y2="289.136" gradientUnits="userSpaceOnUse">
<stop stop-color="#A365ED" stop-opacity="0.1"/>
<stop offset="1" stop-color="#C4C4C4" stop-opacity="0"/>
</linearGradient>
</defs>
</svg>
