<svg width="20" height="22" viewBox="0 0 20 22" fill="none" xmlns="http://www.w3.org/2000/svg">
<path d="M13.7085 11.71C14.6889 10.9387 15.4045 9.88092 15.7558 8.68394C16.107 7.48697 16.0765 6.21027 15.6683 5.03147C15.2602 3.85267 14.4948 2.83039 13.4786 2.10686C12.4624 1.38332 11.246 0.994507 9.99853 0.994507C8.75108 0.994507 7.53465 1.38332 6.51846 2.10686C5.50228 2.83039 4.73688 3.85267 4.32874 5.03147C3.92061 6.21027 3.89004 7.48697 4.24129 8.68394C4.59254 9.88092 5.30814 10.9387 6.28853 11.71C4.60861 12.383 3.14282 13.4994 2.04742 14.9399C0.95203 16.3805 0.268095 18.0913 0.0685318 19.89C0.0540864 20.0213 0.0656484 20.1542 0.102557 20.2811C0.139466 20.4079 0.200999 20.5263 0.283643 20.6293C0.450551 20.8375 0.693315 20.9708 0.958532 21C1.22375 21.0292 1.48969 20.9518 1.69786 20.7849C1.90602 20.618 2.03936 20.3752 2.06853 20.11C2.28812 18.1552 3.22022 16.3498 4.68675 15.0388C6.15328 13.7278 8.05143 13.003 10.0185 13.003C11.9856 13.003 13.8838 13.7278 15.3503 15.0388C16.8168 16.3498 17.7489 18.1552 17.9685 20.11C17.9957 20.3557 18.113 20.5827 18.2976 20.747C18.4823 20.9114 18.7213 21.0015 18.9685 21H19.0785C19.3407 20.9698 19.5803 20.8373 19.7451 20.6313C19.9099 20.4252 19.9866 20.1624 19.9585 19.9C19.758 18.0962 19.0704 16.381 17.9694 14.9382C16.8684 13.4954 15.3954 12.3795 13.7085 11.71ZM9.99853 11C9.20741 11 8.43405 10.7654 7.77625 10.3259C7.11845 9.88636 6.60576 9.26164 6.30301 8.53074C6.00026 7.79983 5.92105 6.99557 6.07539 6.21964C6.22973 5.44372 6.61069 4.73099 7.1701 4.17158C7.72951 3.61217 8.44225 3.2312 9.21817 3.07686C9.99409 2.92252 10.7984 3.00173 11.5293 3.30448C12.2602 3.60724 12.8849 4.11993 13.3244 4.77772C13.7639 5.43552 13.9985 6.20888 13.9985 7C13.9985 8.06087 13.5771 9.07828 12.827 9.82843C12.0768 10.5786 11.0594 11 9.99853 11Z" fill="#2D0656"/>
</svg>
