<svg width="12" height="15" viewBox="0 0 12 15" fill="none" xmlns="http://www.w3.org/2000/svg">
<path d="M11.25 13.2209H0.75C0.551088 13.2209 0.360322 13.2976 0.21967 13.4342C0.0790178 13.5707 0 13.756 0 13.9491C0 14.1423 0.0790178 14.3275 0.21967 14.4641C0.360322 14.6006 0.551088 14.6774 0.75 14.6774H11.25C11.4489 14.6774 11.6397 14.6006 11.7803 14.4641C11.921 14.3275 12 14.1423 12 13.9491C12 13.756 11.921 13.5707 11.7803 13.4342C11.6397 13.2976 11.4489 13.2209 11.25 13.2209ZM5.4675 11.5532C5.53883 11.6195 5.62294 11.6714 5.715 11.7061C5.80478 11.7446 5.90185 11.7645 6 11.7645C6.09815 11.7645 6.19522 11.7446 6.285 11.7061C6.37706 11.6714 6.46117 11.6195 6.5325 11.5532L9.5325 8.64015C9.67373 8.50302 9.75307 8.31703 9.75307 8.12309C9.75307 7.92915 9.67373 7.74316 9.5325 7.60603C9.39127 7.4689 9.19973 7.39186 9 7.39186C8.80027 7.39186 8.60873 7.4689 8.4675 7.60603L6.75 9.28101V0.840558C6.75 0.647413 6.67098 0.462179 6.53033 0.325605C6.38968 0.189031 6.19891 0.112305 6 0.112305C5.80109 0.112305 5.61032 0.189031 5.46967 0.325605C5.32902 0.462179 5.25 0.647413 5.25 0.840558V9.28101L3.5325 7.60603C3.46257 7.53813 3.37955 7.48427 3.28819 7.44752C3.19682 7.41077 3.09889 7.39186 3 7.39186C2.90111 7.39186 2.80318 7.41077 2.71181 7.44752C2.62045 7.48427 2.53743 7.53813 2.4675 7.60603C2.39757 7.67393 2.3421 7.75454 2.30426 7.84326C2.26641 7.93198 2.24693 8.02706 2.24693 8.12309C2.24693 8.21912 2.26641 8.3142 2.30426 8.40292C2.3421 8.49164 2.39757 8.57225 2.4675 8.64015L5.4675 11.5532Z" fill="#630DBF"/>
</svg>
