<svg width="16" height="16" viewBox="0 0 16 16" fill="none" xmlns="http://www.w3.org/2000/svg">
<path fill-rule="evenodd" clip-rule="evenodd" d="M2.0785 8.33357C1.97383 8.12571 1.97383 7.87357 2.0785 7.66571C3.33987 5.16643 5.66994 3 8 3C10.3301 3 12.6601 5.16643 13.9215 7.66643C14.0262 7.87429 14.0262 8.12643 13.9215 8.33429C12.6601 10.8336 10.3301 13 8 13C5.66994 13 3.33987 10.8336 2.0785 8.33357Z" stroke="#828282" stroke-linecap="round" stroke-linejoin="round"/>
<path d="M9.41421 6.58579C10.1953 7.36683 10.1953 8.63317 9.41421 9.41421C8.63317 10.1953 7.36683 10.1953 6.58579 9.41421C5.80474 8.63317 5.80474 7.36683 6.58579 6.58579C7.36683 5.80474 8.63317 5.80474 9.41421 6.58579" stroke="#828282" stroke-linecap="round" stroke-linejoin="round"/>
<rect x="14.4736" y="4.39008" width="0.562316" height="14.8941" transform="rotate(63.0287 14.4736 4.39008)" fill="#828282"/>
</svg>
