<svg width="90" height="37" viewBox="0 0 90 37" fill="none" xmlns="http://www.w3.org/2000/svg">
<path d="M10.31 26.4006C9.698 26.4006 9.146 26.3706 8.654 26.3106C8.162 26.2506 7.706 26.1606 7.286 26.0406C6.866 25.9206 6.458 25.7646 6.062 25.5726V22.8006C6.614 23.2446 7.238 23.5806 7.934 23.8086C8.63 24.0366 9.29 24.1506 9.914 24.1506C10.466 24.1506 10.886 24.0486 11.174 23.8446C11.474 23.6286 11.624 23.3046 11.624 22.8726C11.624 22.5486 11.486 22.2906 11.21 22.0986C10.946 21.8946 10.592 21.7206 10.148 21.5766C9.704 21.4206 9.206 21.2466 8.654 21.0546C8.306 20.9466 7.964 20.8086 7.628 20.6406C7.292 20.4726 6.992 20.2626 6.728 20.0106C6.464 19.7466 6.254 19.4286 6.098 19.0566C5.942 18.6846 5.864 18.2286 5.864 17.6886C5.864 17.1966 5.954 16.7226 6.134 16.2666C6.314 15.8106 6.59 15.4026 6.962 15.0426C7.346 14.6826 7.832 14.4006 8.42 14.1966C9.008 13.9806 9.698 13.8726 10.49 13.8726C10.982 13.8726 11.414 13.9026 11.786 13.9626C12.17 14.0226 12.536 14.1126 12.884 14.2326C13.232 14.3406 13.586 14.4846 13.946 14.6646V17.4726C13.67 17.2446 13.358 17.0346 13.01 16.8426C12.674 16.6386 12.32 16.4706 11.948 16.3386C11.576 16.2066 11.186 16.1346 10.778 16.1226C10.418 16.1106 10.088 16.1466 9.788 16.2306C9.488 16.3146 9.254 16.4526 9.086 16.6446C8.918 16.8246 8.834 17.0586 8.834 17.3466C8.834 17.6826 8.936 17.9466 9.14 18.1386C9.344 18.3306 9.626 18.4926 9.986 18.6246C10.346 18.7446 10.748 18.8766 11.192 19.0206C11.684 19.1646 12.134 19.3266 12.542 19.5066C12.962 19.6746 13.328 19.8906 13.64 20.1546C13.952 20.4186 14.192 20.7426 14.36 21.1266C14.528 21.5106 14.612 21.9726 14.612 22.5126C14.612 23.2326 14.444 23.8926 14.108 24.4926C13.772 25.0806 13.286 25.5486 12.65 25.8966C12.014 26.2326 11.234 26.4006 10.31 26.4006ZM17.5667 26.1486V14.1426H20.5367L24.6587 19.8846L23.0747 19.9386L27.3407 14.1426H30.2387V26.1486H27.3227V16.3386L27.8987 17.2746L23.7947 22.7286L19.7267 17.1846L20.3567 16.7526V26.1486H17.5667ZM39.2153 26.5266C37.3673 26.5266 35.9813 26.1366 35.0573 25.3566C34.1453 24.5646 33.6893 23.3346 33.6893 21.6666V14.1426H36.7313V21.5406C36.7313 22.4646 36.9173 23.1486 37.2893 23.5926C37.6613 24.0366 38.2553 24.2586 39.0713 24.2586C39.8153 24.2586 40.3913 24.0366 40.7993 23.5926C41.2193 23.1486 41.4293 22.4646 41.4293 21.5406V14.1426H44.2013V21.6666C44.2013 22.7826 43.9853 23.7006 43.5533 24.4206C43.1333 25.1286 42.5513 25.6566 41.8073 26.0046C41.0633 26.3526 40.1993 26.5266 39.2153 26.5266ZM47.3439 26.1486V24.0246L53.6979 15.8526L54.4539 16.4466H47.4339V14.1426H56.7759V16.2306L50.7279 24.2586L49.7739 23.8806H56.7759V26.1486H47.3439ZM59.9581 26.1486V14.1426H62.8741V23.8626H68.0941V26.1486H59.9581ZM72.809 26.1486V20.9646L68.255 14.1426H71.837L75.257 19.8846H73.907L77.021 14.1426H79.919L75.311 21.6846L75.725 20.1366V26.1486H72.809Z" fill="#630DBF"/>
<rect width="0.357221" height="3.69129" transform="matrix(-4.37114e-08 1 1 4.37114e-08 77.3086 4.16748)" fill="url(#paint0_linear_140_163)"/>
<path d="M55.5186 8.69377L59.8496 4.52618L72.5461 4.52618L68.2744 8.69377L55.5186 8.69377Z" fill="url(#paint1_linear_140_163)"/>
<path d="M63.7346 4.16816L59.4197 0.000580005L55.5186 0.000579834L59.8335 4.16816L63.7346 4.16816Z" fill="url(#paint2_linear_140_163)"/>
<path d="M76.9514 4.52572L72.6365 8.6933L68.7354 8.6933L73.0503 4.52572L76.9514 4.52572Z" fill="url(#paint3_linear_140_163)"/>
<path d="M59.9238 -9.53674e-06L64.2549 4.16757L76.9514 4.16757L72.6797 -8.97917e-06L59.9238 -9.53674e-06Z" fill="url(#paint4_linear_140_163)"/>
<rect width="6.05311" height="6.05311" transform="matrix(0.707107 0.707107 0.707107 -0.707107 50.9434 4.35123)" fill="url(#paint5_linear_140_163)"/>
<path d="M1 35.1486V4.14856H47" stroke="#6A0FCA"/>
<path d="M85 5.14856V35.6486H4" stroke="#6A0FCA"/>
<defs>
<linearGradient id="paint0_linear_140_163" x1="0.178611" y1="0" x2="0.178611" y2="3.69129" gradientUnits="userSpaceOnUse">
<stop stop-color="#9415FF"/>
<stop offset="1" stop-color="#C680FF"/>
</linearGradient>
<linearGradient id="paint1_linear_140_163" x1="55.5186" y1="6.60997" x2="72.5461" y2="6.60998" gradientUnits="userSpaceOnUse">
<stop stop-color="#9859FF"/>
<stop offset="1" stop-color="#53C9FF"/>
</linearGradient>
<linearGradient id="paint2_linear_140_163" x1="55.5186" y1="2.08437" x2="63.7346" y2="2.08437" gradientUnits="userSpaceOnUse">
<stop stop-color="#910EFF"/>
<stop offset="1" stop-color="#CC8CFF"/>
</linearGradient>
<linearGradient id="paint3_linear_140_163" x1="68.7354" y1="6.60951" x2="76.9514" y2="6.60951" gradientUnits="userSpaceOnUse">
<stop stop-color="#910EFF"/>
<stop offset="1" stop-color="#CC8CFF"/>
</linearGradient>
<linearGradient id="paint4_linear_140_163" x1="59.9238" y1="2.08378" x2="76.9514" y2="2.08378" gradientUnits="userSpaceOnUse">
<stop stop-color="#9859FF"/>
<stop offset="1" stop-color="#53C9FF"/>
</linearGradient>
<linearGradient id="paint5_linear_140_163" x1="1.63272" y1="-1.56219" x2="7.52659" y2="4.50003" gradientUnits="userSpaceOnUse">
<stop stop-color="#900DFF"/>
<stop offset="1" stop-color="#A2D0FF"/>
</linearGradient>
</defs>
</svg>
