<svg width="80" height="19" viewBox="0 0 80 19" fill="none" xmlns="http://www.w3.org/2000/svg">
<path fill-rule="evenodd" clip-rule="evenodd" d="M17.64 9.20449C17.64 8.56631 17.5827 7.95267 17.4764 7.36358H9V10.8449H13.8436C13.635 11.9699 13.0009 12.9231 12.0477 13.5613V15.8195H14.9564C16.6582 14.2527 17.64 11.9454 17.64 9.20449Z" fill="#4285F4"/>
<path fill-rule="evenodd" clip-rule="evenodd" d="M8.99976 17.9997C11.4298 17.9997 13.467 17.1938 14.9561 15.8193L12.0475 13.5611C11.2416 14.1011 10.2107 14.4202 8.99976 14.4202C6.65567 14.4202 4.67158 12.837 3.96385 10.7097H0.957031V13.0416C2.43794 15.9829 5.48158 17.9997 8.99976 17.9997Z" fill="#34A853"/>
<path fill-rule="evenodd" clip-rule="evenodd" d="M3.96409 10.7099C3.78409 10.1699 3.68182 9.59306 3.68182 8.99987C3.68182 8.40669 3.78409 7.82987 3.96409 7.28987V4.95806H0.957273C0.347727 6.17306 0 7.5476 0 8.99987C0 10.4521 0.347727 11.8267 0.957273 13.0417L3.96409 10.7099Z" fill="#FBBC05"/>
<path fill-rule="evenodd" clip-rule="evenodd" d="M8.99976 3.57942C10.3211 3.57942 11.5075 4.03351 12.4402 4.92533L15.0216 2.34397C13.4629 0.891696 11.4257 -0.00012207 8.99976 -0.00012207C5.48158 -0.00012207 2.43794 2.0167 0.957031 4.95806L3.96385 7.28988C4.67158 5.1626 6.65567 3.57942 8.99976 3.57942Z" fill="#EA4335"/>
<path d="M38.3906 9.18738V13.5311C38.2292 13.7447 37.9766 13.979 37.6328 14.2343C37.2943 14.4843 36.8438 14.7004 36.2812 14.8827C35.7188 15.065 35.0182 15.1561 34.1797 15.1561C33.4661 15.1561 32.8125 15.0363 32.2188 14.7968C31.625 14.552 31.112 14.1952 30.6797 13.7264C30.2526 13.2577 29.9219 12.6874 29.6875 12.0155C29.4531 11.3384 29.3359 10.5676 29.3359 9.703V8.91394C29.3359 8.05457 29.4427 7.28894 29.6562 6.61707C29.875 5.93998 30.1875 5.36707 30.5938 4.89832C31 4.42957 31.4896 4.0754 32.0625 3.83582C32.6406 3.59102 33.2943 3.46863 34.0234 3.46863C34.9557 3.46863 35.7266 3.62488 36.3359 3.93738C36.9505 4.24467 37.4245 4.67175 37.7578 5.21863C38.0911 5.7655 38.3021 6.3905 38.3906 7.09363H36.4688C36.4062 6.69779 36.2839 6.34363 36.1016 6.03113C35.9245 5.71863 35.6693 5.47384 35.3359 5.29675C35.0078 5.11446 34.5807 5.02332 34.0547 5.02332C33.6016 5.02332 33.2031 5.10925 32.8594 5.28113C32.5156 5.453 32.2292 5.70561 32 6.03894C31.776 6.37227 31.6068 6.77852 31.4922 7.25769C31.3776 7.73686 31.3203 8.28373 31.3203 8.89832V9.703C31.3203 10.328 31.3854 10.8827 31.5156 11.3671C31.651 11.8514 31.8438 12.2603 32.0938 12.5936C32.349 12.927 32.6589 13.1796 33.0234 13.3514C33.388 13.5181 33.7995 13.6014 34.2578 13.6014C34.7057 13.6014 35.0729 13.565 35.3594 13.4921C35.6458 13.4139 35.8724 13.3228 36.0391 13.2186C36.2109 13.1093 36.3438 13.0051 36.4375 12.9061V10.6483H34.0703V9.18738H38.3906ZM40.0156 10.8671V10.6874C40.0156 10.078 40.1042 9.5129 40.2812 8.99207C40.4583 8.46602 40.7135 8.01029 41.0469 7.62488C41.3854 7.23425 41.7969 6.93217 42.2812 6.71863C42.7708 6.49988 43.3229 6.3905 43.9375 6.3905C44.5573 6.3905 45.1094 6.49988 45.5938 6.71863C46.0833 6.93217 46.4974 7.23425 46.8359 7.62488C47.1745 8.01029 47.4323 8.46602 47.6094 8.99207C47.7865 9.5129 47.875 10.078 47.875 10.6874V10.8671C47.875 11.4764 47.7865 12.0415 47.6094 12.5624C47.4323 13.0832 47.1745 13.5389 46.8359 13.9296C46.4974 14.315 46.0859 14.6171 45.6016 14.8358C45.1172 15.0494 44.5677 15.1561 43.9531 15.1561C43.3333 15.1561 42.7786 15.0494 42.2891 14.8358C41.8047 14.6171 41.3932 14.315 41.0547 13.9296C40.7161 13.5389 40.4583 13.0832 40.2812 12.5624C40.1042 12.0415 40.0156 11.4764 40.0156 10.8671ZM41.8984 10.6874V10.8671C41.8984 11.2473 41.9375 11.6066 42.0156 11.9452C42.0938 12.2837 42.2161 12.5806 42.3828 12.8358C42.5495 13.091 42.763 13.2915 43.0234 13.4374C43.2839 13.5832 43.5938 13.6561 43.9531 13.6561C44.3021 13.6561 44.6042 13.5832 44.8594 13.4374C45.1198 13.2915 45.3333 13.091 45.5 12.8358C45.6667 12.5806 45.7891 12.2837 45.8672 11.9452C45.9505 11.6066 45.9922 11.2473 45.9922 10.8671V10.6874C45.9922 10.3124 45.9505 9.95821 45.8672 9.62488C45.7891 9.28634 45.6641 8.98686 45.4922 8.72644C45.3255 8.46602 45.112 8.2629 44.8516 8.11707C44.5964 7.96602 44.2917 7.8905 43.9375 7.8905C43.5833 7.8905 43.276 7.96602 43.0156 8.11707C42.7604 8.2629 42.5495 8.46602 42.3828 8.72644C42.2161 8.98686 42.0938 9.28634 42.0156 9.62488C41.9375 9.95821 41.8984 10.3124 41.8984 10.6874ZM49.0938 10.8671V10.6874C49.0938 10.078 49.1823 9.5129 49.3594 8.99207C49.5365 8.46602 49.7917 8.01029 50.125 7.62488C50.4635 7.23425 50.875 6.93217 51.3594 6.71863C51.849 6.49988 52.401 6.3905 53.0156 6.3905C53.6354 6.3905 54.1875 6.49988 54.6719 6.71863C55.1615 6.93217 55.5755 7.23425 55.9141 7.62488C56.2526 8.01029 56.5104 8.46602 56.6875 8.99207C56.8646 9.5129 56.9531 10.078 56.9531 10.6874V10.8671C56.9531 11.4764 56.8646 12.0415 56.6875 12.5624C56.5104 13.0832 56.2526 13.5389 55.9141 13.9296C55.5755 14.315 55.1641 14.6171 54.6797 14.8358C54.1953 15.0494 53.6458 15.1561 53.0312 15.1561C52.4115 15.1561 51.8568 15.0494 51.3672 14.8358C50.8828 14.6171 50.4714 14.315 50.1328 13.9296C49.7943 13.5389 49.5365 13.0832 49.3594 12.5624C49.1823 12.0415 49.0938 11.4764 49.0938 10.8671ZM50.9766 10.6874V10.8671C50.9766 11.2473 51.0156 11.6066 51.0938 11.9452C51.1719 12.2837 51.2943 12.5806 51.4609 12.8358C51.6276 13.091 51.8411 13.2915 52.1016 13.4374C52.362 13.5832 52.6719 13.6561 53.0312 13.6561C53.3802 13.6561 53.6823 13.5832 53.9375 13.4374C54.1979 13.2915 54.4115 13.091 54.5781 12.8358C54.7448 12.5806 54.8672 12.2837 54.9453 11.9452C55.0286 11.6066 55.0703 11.2473 55.0703 10.8671V10.6874C55.0703 10.3124 55.0286 9.95821 54.9453 9.62488C54.8672 9.28634 54.7422 8.98686 54.5703 8.72644C54.4036 8.46602 54.1901 8.2629 53.9297 8.11707C53.6745 7.96602 53.3698 7.8905 53.0156 7.8905C52.6615 7.8905 52.3542 7.96602 52.0938 8.11707C51.8385 8.2629 51.6276 8.46602 51.4609 8.72644C51.2943 8.98686 51.1719 9.28634 51.0938 9.62488C51.0156 9.95821 50.9766 10.3124 50.9766 10.6874ZM63.9453 6.54675H65.6562V14.7655C65.6562 15.5259 65.4948 16.1718 65.1719 16.703C64.849 17.2343 64.3984 17.6379 63.8203 17.9139C63.2422 18.1952 62.5729 18.3358 61.8125 18.3358C61.4896 18.3358 61.1302 18.2889 60.7344 18.1952C60.3438 18.1014 59.9635 17.9504 59.5938 17.7421C59.2292 17.5389 58.9245 17.2707 58.6797 16.9374L59.5625 15.828C59.8646 16.1874 60.1979 16.4504 60.5625 16.6171C60.9271 16.7837 61.3099 16.8671 61.7109 16.8671C62.1432 16.8671 62.5104 16.7863 62.8125 16.6249C63.1198 16.4686 63.3568 16.2369 63.5234 15.9296C63.6901 15.6223 63.7734 15.2473 63.7734 14.8046V8.46082L63.9453 6.54675ZM58.2031 10.8671V10.703C58.2031 10.0624 58.2812 9.47904 58.4375 8.953C58.5938 8.42175 58.8177 7.96602 59.1094 7.58582C59.401 7.2004 59.7552 6.90613 60.1719 6.703C60.5885 6.49467 61.0599 6.3905 61.5859 6.3905C62.1328 6.3905 62.599 6.48946 62.9844 6.68738C63.375 6.88529 63.7005 7.16915 63.9609 7.53894C64.2214 7.90352 64.4245 8.34102 64.5703 8.85144C64.7214 9.35665 64.8333 9.91915 64.9062 10.5389V11.0624C64.8385 11.6665 64.724 12.2186 64.5625 12.7186C64.401 13.2186 64.1875 13.6509 63.9219 14.0155C63.6562 14.3801 63.3281 14.6613 62.9375 14.8593C62.5521 15.0572 62.0964 15.1561 61.5703 15.1561C61.0547 15.1561 60.5885 15.0494 60.1719 14.8358C59.7604 14.6223 59.4062 14.3228 59.1094 13.9374C58.8177 13.552 58.5938 13.0988 58.4375 12.578C58.2812 12.052 58.2031 11.4816 58.2031 10.8671ZM60.0859 10.703V10.8671C60.0859 11.2525 60.1224 11.6119 60.1953 11.9452C60.2734 12.2785 60.3906 12.5728 60.5469 12.828C60.7083 13.078 60.9115 13.2759 61.1562 13.4218C61.4062 13.5624 61.7005 13.6327 62.0391 13.6327C62.4818 13.6327 62.8438 13.5389 63.125 13.3514C63.4115 13.1639 63.6302 12.9113 63.7812 12.5936C63.9375 12.2707 64.0469 11.9113 64.1094 11.5155V10.1014C64.0781 9.79415 64.013 9.50769 63.9141 9.24207C63.8203 8.97644 63.6927 8.74467 63.5312 8.54675C63.3698 8.34363 63.1667 8.18738 62.9219 8.078C62.6771 7.96342 62.388 7.90613 62.0547 7.90613C61.7161 7.90613 61.4219 7.97904 61.1719 8.12488C60.9219 8.27071 60.7161 8.47123 60.5547 8.72644C60.3984 8.98165 60.2812 9.27852 60.2031 9.61707C60.125 9.95561 60.0859 10.3176 60.0859 10.703ZM69.625 2.99988V14.9999H67.7344V2.99988H69.625ZM75.4141 15.1561C74.7891 15.1561 74.224 15.0546 73.7188 14.8514C73.2188 14.6431 72.7917 14.354 72.4375 13.9843C72.0885 13.6145 71.8203 13.1796 71.6328 12.6796C71.4453 12.1796 71.3516 11.6405 71.3516 11.0624V10.7499C71.3516 10.0884 71.4479 9.48946 71.6406 8.953C71.8333 8.41654 72.1016 7.95821 72.4453 7.578C72.7891 7.19259 73.1953 6.89832 73.6641 6.69519C74.1328 6.49207 74.6406 6.3905 75.1875 6.3905C75.7917 6.3905 76.3203 6.49207 76.7734 6.69519C77.2266 6.89832 77.6016 7.18477 77.8984 7.55457C78.2005 7.91915 78.4245 8.35404 78.5703 8.85925C78.7214 9.36446 78.7969 9.92175 78.7969 10.5311V11.3358H72.2656V9.98425H76.9375V9.83582C76.9271 9.49727 76.8594 9.17957 76.7344 8.88269C76.6146 8.58582 76.4297 8.34623 76.1797 8.16394C75.9297 7.98165 75.5964 7.8905 75.1797 7.8905C74.8672 7.8905 74.5885 7.95821 74.3438 8.09363C74.1042 8.22384 73.9036 8.41394 73.7422 8.66394C73.5807 8.91394 73.4557 9.21602 73.3672 9.57019C73.2839 9.91915 73.2422 10.3124 73.2422 10.7499V11.0624C73.2422 11.4322 73.2917 11.7759 73.3906 12.0936C73.4948 12.4061 73.6458 12.6796 73.8438 12.9139C74.0417 13.1483 74.2812 13.3332 74.5625 13.4686C74.8438 13.5988 75.1641 13.6639 75.5234 13.6639C75.9766 13.6639 76.3802 13.5728 76.7344 13.3905C77.0885 13.2082 77.3958 12.9504 77.6562 12.6171L78.6484 13.578C78.4661 13.8436 78.2292 14.0988 77.9375 14.3436C77.6458 14.5832 77.2891 14.7785 76.8672 14.9296C76.4505 15.0806 75.9661 15.1561 75.4141 15.1561Z" fill="black" fill-opacity="0.54"/>
</svg>
