<svg width="139" height="160" viewBox="0 0 139 160" fill="none" xmlns="http://www.w3.org/2000/svg">
<path fill-rule="evenodd" clip-rule="evenodd" d="M104.023 131.009C108.609 122.923 111.228 113.574 111.228 103.614C111.228 72.8992 86.3285 48 55.6138 48C24.8992 48 0 72.8992 0 103.614C0 134.328 24.8992 159.228 55.6138 159.228C67.5343 159.228 78.5788 155.477 87.6318 149.092C100.232 155.83 121.152 161.383 115.663 156.26C110.622 151.555 106.198 138.85 104.023 131.009Z" fill="url(#paint0_linear_557_168)"/>
<path d="M16.3993 98V77.99H19.6993V86.6H28.9393V77.99H32.2693V98H28.9393V89.48H19.6993V98H16.3993ZM43.325 98.45C41.845 98.45 40.555 98.15 39.455 97.55C38.375 96.95 37.535 96.06 36.935 94.88C36.355 93.7 36.065 92.26 36.065 90.56C36.065 87.94 36.675 85.96 37.895 84.62C39.135 83.26 40.855 82.58 43.055 82.58C44.675 82.58 45.985 82.94 46.985 83.66C47.985 84.38 48.705 85.39 49.145 86.69C49.605 87.97 49.825 89.47 49.805 91.19H37.955L37.865 88.85H47.405L46.655 89.6C46.595 88.06 46.275 86.94 45.695 86.24C45.115 85.52 44.205 85.16 42.965 85.16C42.165 85.16 41.485 85.33 40.925 85.67C40.365 85.99 39.935 86.55 39.635 87.35C39.355 88.13 39.215 89.21 39.215 90.59C39.215 92.27 39.605 93.55 40.385 94.43C41.165 95.29 42.315 95.72 43.835 95.72C44.515 95.72 45.145 95.66 45.725 95.54C46.325 95.42 46.875 95.27 47.375 95.09C47.875 94.89 48.305 94.7 48.665 94.52V97.43C47.965 97.73 47.175 97.97 46.295 98.15C45.415 98.35 44.425 98.45 43.325 98.45ZM56.547 98H53.427V77.24H56.547V98ZM62.2456 98V85.55H59.8456V82.94H62.2756V82.34C62.2756 81.28 62.3856 80.4 62.6056 79.7C62.8456 79 63.1556 78.44 63.5356 78.02C63.9156 77.6 64.3356 77.29 64.7956 77.09C65.2556 76.87 65.7156 76.73 66.1756 76.67C66.6556 76.61 67.1056 76.58 67.5256 76.58C67.8256 76.58 68.1256 76.6 68.4256 76.64C68.7256 76.68 68.9856 76.73 69.2056 76.79V79.58C69.0256 79.48 68.8356 79.4 68.6356 79.34C68.4556 79.26 68.2156 79.22 67.9156 79.22C67.6156 79.22 67.3156 79.25 67.0156 79.31C66.7156 79.35 66.4456 79.47 66.2056 79.67C65.9656 79.85 65.7756 80.13 65.6356 80.51C65.4956 80.89 65.4256 81.41 65.4256 82.07V82.94H69.2056V85.55H65.3956V98H62.2456ZM79.13 98.45C77.75 98.45 76.56 98.23 75.56 97.79C74.58 97.33 73.82 96.65 73.28 95.75C72.74 94.85 72.47 93.73 72.47 92.39V82.94H75.62V91.94C75.62 93.22 75.9 94.17 76.46 94.79C77.04 95.39 77.93 95.69 79.13 95.69C80.33 95.69 81.21 95.39 81.77 94.79C82.35 94.17 82.64 93.22 82.64 91.94V82.94H85.67V92.39C85.67 94.39 85.09 95.9 83.93 96.92C82.79 97.94 81.19 98.45 79.13 98.45ZM95.7521 98H92.6321V77.24H95.7521V98ZM32.3595 133.39C30.9995 133.39 29.9195 133.03 29.1195 132.31C28.3395 131.59 27.9495 130.53 27.9495 129.13V120.55H25.5195V117.94H27.9495V113.74H31.1895V117.94H34.8495V120.55H31.1895V128.5C31.1895 129.2 31.3095 129.73 31.5495 130.09C31.8095 130.43 32.2795 130.6 32.9595 130.6C33.2995 130.6 33.6395 130.56 33.9795 130.48C34.3195 130.38 34.6095 130.26 34.8495 130.12V132.91C34.4895 133.07 34.0795 133.19 33.6195 133.27C33.1795 133.35 32.7595 133.39 32.3595 133.39ZM38.5932 133V118.03H41.7432L41.7732 133H38.5932ZM38.5032 115.54V112.69H41.8632V115.54H38.5032ZM53.1662 133.42C52.7862 133.42 52.3162 133.37 51.7562 133.27C51.1962 133.19 50.6362 133.06 50.0762 132.88C49.5162 132.68 49.0262 132.42 48.6062 132.1L49.4162 131.08V139.03H46.2962V120.85C46.2962 120.23 46.4862 119.71 46.8662 119.29C47.2662 118.87 47.7862 118.54 48.4262 118.3C49.0662 118.04 49.7662 117.86 50.5262 117.76C51.3062 117.64 52.0762 117.58 52.8362 117.58C54.1762 117.58 55.3962 117.83 56.4962 118.33C57.5962 118.83 58.4762 119.68 59.1362 120.88C59.7962 122.06 60.1262 123.68 60.1262 125.74C60.1262 127.3 59.8562 128.66 59.3162 129.82C58.7762 130.96 57.9862 131.85 56.9462 132.49C55.9062 133.11 54.6462 133.42 53.1662 133.42ZM52.5962 130.78C53.5562 130.78 54.3562 130.58 54.9962 130.18C55.6362 129.78 56.1162 129.2 56.4362 128.44C56.7562 127.68 56.9162 126.76 56.9162 125.68C56.9162 124.68 56.7962 123.77 56.5562 122.95C56.3362 122.13 55.9262 121.49 55.3262 121.03C54.7262 120.55 53.8662 120.31 52.7462 120.31C51.7462 120.31 50.9362 120.42 50.3162 120.64C49.7162 120.84 49.4162 121.14 49.4162 121.54V129.91C49.9362 130.19 50.4662 130.41 51.0062 130.57C51.5462 130.71 52.0762 130.78 52.5962 130.78ZM68.1071 133.45C67.0271 133.45 66.1071 133.33 65.3471 133.09C64.6071 132.87 63.8771 132.59 63.1571 132.25V129.28C63.6771 129.6 64.1871 129.89 64.6871 130.15C65.1871 130.39 65.7071 130.58 66.2471 130.72C66.8071 130.86 67.4271 130.93 68.1071 130.93C68.9671 130.93 69.6371 130.75 70.1171 130.39C70.6171 130.03 70.8671 129.58 70.8671 129.04C70.8671 128.58 70.7071 128.22 70.3871 127.96C70.0871 127.7 69.6971 127.48 69.2171 127.3C68.7371 127.12 68.2371 126.94 67.7171 126.76C67.1771 126.62 66.6371 126.46 66.0971 126.28C65.5571 126.08 65.0571 125.82 64.5971 125.5C64.1571 125.16 63.7971 124.73 63.5171 124.21C63.2571 123.69 63.1271 123.05 63.1271 122.29C63.1271 121.45 63.2971 120.74 63.6371 120.16C63.9771 119.56 64.4171 119.08 64.9571 118.72C65.5171 118.34 66.1271 118.07 66.7871 117.91C67.4671 117.73 68.1271 117.64 68.7671 117.64C69.8271 117.66 70.6871 117.79 71.3471 118.03C72.0271 118.27 72.6871 118.56 73.3271 118.9L73.3571 121.6C72.6371 121.22 71.9571 120.89 71.3171 120.61C70.6771 120.33 69.9371 120.19 69.0971 120.19C68.3171 120.19 67.6671 120.34 67.1471 120.64C66.6271 120.92 66.3671 121.34 66.3671 121.9C66.3671 122.38 66.5071 122.76 66.7871 123.04C67.0871 123.32 67.4671 123.54 67.9271 123.7C68.4071 123.86 68.9171 124.02 69.4571 124.18C69.9571 124.34 70.4771 124.51 71.0171 124.69C71.5571 124.85 72.0571 125.09 72.5171 125.41C72.9771 125.73 73.3471 126.15 73.6271 126.67C73.9271 127.19 74.0771 127.87 74.0771 128.71C74.0571 129.83 73.7571 130.74 73.1771 131.44C72.6171 132.14 71.8771 132.65 70.9571 132.97C70.0371 133.29 69.0871 133.45 68.1071 133.45ZM80.311 127.75L79.951 112.99H83.011L82.681 127.75H80.311ZM79.951 133V130.18H83.041V133H79.951Z" fill="white"/>
<rect width="18.4995" height="1.71686" rx="0.858432" transform="matrix(-0.996798 0.0799664 0.0799664 0.996798 130.055 68.5654)" fill="url(#paint1_linear_557_168)"/>
<rect width="18.4995" height="1.71686" rx="0.858432" transform="matrix(-0.996798 0.0799664 0.0799664 0.996798 135.594 73.042)" fill="url(#paint2_linear_557_168)"/>
<rect width="18.4995" height="1.71686" rx="0.858432" transform="matrix(0.00141281 0.999999 0.999999 -0.00141281 74.9336 21.2422)" fill="url(#paint3_linear_557_168)"/>
<rect width="18.4995" height="1.71686" rx="0.858432" transform="matrix(0.00141281 0.999999 0.999999 -0.00141281 70.3672 16.3271)" fill="url(#paint4_linear_557_168)"/>
<path d="M80.9853 59.0132L92.5816 68.5278C92.4065 69.4519 84.0704 79.2846 77.9741 73.7196C73.4851 69.6219 78.1287 62.3013 80.9853 59.0132Z" stroke="#2D0656" stroke-linejoin="round"/>
<path d="M115.645 56.1849C107.951 56.132 98.0821 63.6181 94.0608 67.5156L81.7485 57.6726C85.7522 53.0628 89.1182 40.645 87.7908 33.3315L115.645 56.1849Z" stroke="#2D0656" stroke-linejoin="round"/>
<path d="M106.011 48.2183C106.959 44.582 105.4 39.6829 98.6664 42.1924" stroke="#2D0656" stroke-linejoin="round"/>
<line x1="0.5" y1="-0.5" x2="6.78011" y2="-0.5" transform="matrix(0.996519 -0.0833696 -0.0833696 -0.996519 114.547 45.9893)" stroke="black" stroke-linecap="round"/>
<line x1="0.5" y1="-0.5" x2="6.78011" y2="-0.5" transform="matrix(0.00622796 -0.999981 -0.999981 -0.00622796 97.332 33.8027)" stroke="black" stroke-linecap="round"/>
<line x1="0.5" y1="-0.5" x2="6.78011" y2="-0.5" transform="matrix(0.615869 -0.787849 -0.787849 -0.615869 108.441 36.4941)" stroke="black" stroke-linecap="round"/>
<line x1="0.5" y1="-0.5" x2="2.9748" y2="-0.5" transform="matrix(0.906549 -0.4221 -0.4221 -0.906549 111.594 41.2637)" stroke="black" stroke-linecap="round"/>
<line x1="0.5" y1="-0.5" x2="2.9748" y2="-0.5" transform="matrix(0.195109 -0.980781 -0.980781 -0.195109 102.762 35.6387)" stroke="black" stroke-linecap="round"/>
<defs>
<linearGradient id="paint0_linear_557_168" x1="-1.95873" y1="41.215" x2="109.523" y2="41.215" gradientUnits="userSpaceOnUse">
<stop stop-color="#891AFF"/>
<stop offset="1" stop-color="#3EA3FF"/>
</linearGradient>
<linearGradient id="paint1_linear_557_168" x1="9.24973" y1="0" x2="20.4834" y2="0" gradientUnits="userSpaceOnUse">
<stop stop-color="#891AFF"/>
<stop offset="1" stop-color="#22D5FF"/>
</linearGradient>
<linearGradient id="paint2_linear_557_168" x1="9.24973" y1="0" x2="20.4834" y2="0" gradientUnits="userSpaceOnUse">
<stop stop-color="#891AFF"/>
<stop offset="1" stop-color="#22D5FF"/>
</linearGradient>
<linearGradient id="paint3_linear_557_168" x1="9.24973" y1="0" x2="20.4834" y2="0" gradientUnits="userSpaceOnUse">
<stop stop-color="#891AFF"/>
<stop offset="1" stop-color="#22D5FF"/>
</linearGradient>
<linearGradient id="paint4_linear_557_168" x1="9.24973" y1="0" x2="20.4834" y2="0" gradientUnits="userSpaceOnUse">
<stop stop-color="#891AFF"/>
<stop offset="1" stop-color="#22D5FF"/>
</linearGradient>
</defs>
</svg>
