<svg width="74" height="74" viewBox="0 0 74 74" fill="none" xmlns="http://www.w3.org/2000/svg">
<path fill-rule="evenodd" clip-rule="evenodd" d="M37.0003 31.7143C42.8387 31.7143 47.5717 26.9813 47.5717 21.1429C47.5717 15.3044 42.8387 10.5714 37.0003 10.5714C31.1618 10.5714 26.4289 15.3044 26.4289 21.1429C26.4289 26.9813 31.1618 31.7143 37.0003 31.7143ZM37.0003 42.2857C48.6772 42.2857 58.1431 32.8197 58.1431 21.1429C58.1431 9.46598 48.6772 0 37.0003 0C25.3234 0 15.8574 9.46598 15.8574 21.1429C15.8574 32.8197 25.3234 42.2857 37.0003 42.2857Z" fill="#DFDFDF"/>
<path fill-rule="evenodd" clip-rule="evenodd" d="M37 47.5714C22.4039 47.5714 10.5714 59.4039 10.5714 74H0C0 53.5655 16.5655 37 37 37C57.4345 37 74 53.5655 74 74H63.4286C63.4286 59.4039 51.5961 47.5714 37 47.5714Z" fill="#DFDFDF"/>
</svg>
