<svg width="89" height="19" viewBox="0 0 89 19" fill="none" xmlns="http://www.w3.org/2000/svg">
<path d="M36.1074 13.4452V14.9999H30.3965V13.4452H36.1074ZM30.9434 3.62488V14.9999H28.9824V3.62488H30.9434ZM39.4512 6.54675V14.9999H37.5605V6.54675H39.4512ZM37.4355 4.328C37.4355 4.04154 37.5293 3.80457 37.7168 3.61707C37.9095 3.42436 38.1751 3.328 38.5137 3.328C38.847 3.328 39.11 3.42436 39.3027 3.61707C39.4954 3.80457 39.5918 4.04154 39.5918 4.328C39.5918 4.60925 39.4954 4.84363 39.3027 5.03113C39.11 5.21863 38.847 5.31238 38.5137 5.31238C38.1751 5.31238 37.9095 5.21863 37.7168 5.03113C37.5293 4.84363 37.4355 4.60925 37.4355 4.328ZM43.3809 8.35144V14.9999H41.498V6.54675H43.2715L43.3809 8.35144ZM43.0449 10.4608L42.4355 10.453C42.4408 9.85404 42.5241 9.30457 42.6855 8.80457C42.8522 8.30457 43.0814 7.87488 43.373 7.5155C43.6699 7.15613 44.0241 6.88009 44.4355 6.68738C44.847 6.48946 45.3053 6.3905 45.8105 6.3905C46.2168 6.3905 46.584 6.44779 46.9121 6.56238C47.2454 6.67175 47.5293 6.85144 47.7637 7.10144C48.0033 7.35144 48.1855 7.67696 48.3105 8.078C48.4355 8.47384 48.498 8.96082 48.498 9.53894V14.9999H46.6074V9.53113C46.6074 9.12488 46.5475 8.80457 46.4277 8.57019C46.3132 8.33061 46.1439 8.16134 45.9199 8.06238C45.7012 7.95821 45.4277 7.90613 45.0996 7.90613C44.7767 7.90613 44.4876 7.97384 44.2324 8.10925C43.9772 8.24467 43.7611 8.42957 43.584 8.66394C43.4121 8.89832 43.2793 9.16915 43.1855 9.47644C43.0918 9.78373 43.0449 10.1119 43.0449 10.4608ZM52.3184 2.99988V14.9999H50.4277V2.99988H52.3184ZM57.5684 6.54675L53.8887 10.6249L51.873 12.6874L51.3809 11.0936L52.9043 9.21082L55.2949 6.54675H57.5684ZM55.7012 14.9999L52.959 11.0311L54.1465 9.71082L57.8809 14.9999H55.7012ZM62.334 15.1561C61.709 15.1561 61.1439 15.0546 60.6387 14.8514C60.1387 14.6431 59.7116 14.354 59.3574 13.9843C59.0085 13.6145 58.7402 13.1796 58.5527 12.6796C58.3652 12.1796 58.2715 11.6405 58.2715 11.0624V10.7499C58.2715 10.0884 58.3678 9.48946 58.5605 8.953C58.7533 8.41654 59.0215 7.95821 59.3652 7.578C59.709 7.19259 60.1152 6.89832 60.584 6.69519C61.0527 6.49207 61.5605 6.3905 62.1074 6.3905C62.7116 6.3905 63.2402 6.49207 63.6934 6.69519C64.1465 6.89832 64.5215 7.18477 64.8184 7.55457C65.1204 7.91915 65.3444 8.35404 65.4902 8.85925C65.6413 9.36446 65.7168 9.92175 65.7168 10.5311V11.3358H59.1855V9.98425H63.8574V9.83582C63.847 9.49727 63.7793 9.17957 63.6543 8.88269C63.5345 8.58582 63.3496 8.34623 63.0996 8.16394C62.8496 7.98165 62.5163 7.8905 62.0996 7.8905C61.7871 7.8905 61.5085 7.95821 61.2637 8.09363C61.0241 8.22384 60.8236 8.41394 60.6621 8.66394C60.5007 8.91394 60.3757 9.21602 60.2871 9.57019C60.2038 9.91915 60.1621 10.3124 60.1621 10.7499V11.0624C60.1621 11.4322 60.2116 11.7759 60.3105 12.0936C60.4147 12.4061 60.5658 12.6796 60.7637 12.9139C60.9616 13.1483 61.2012 13.3332 61.4824 13.4686C61.7637 13.5988 62.084 13.6639 62.4434 13.6639C62.8965 13.6639 63.3001 13.5728 63.6543 13.3905C64.0085 13.2082 64.3158 12.9504 64.5762 12.6171L65.5684 13.578C65.3861 13.8436 65.1491 14.0988 64.8574 14.3436C64.5658 14.5832 64.209 14.7785 63.7871 14.9296C63.3704 15.0806 62.8861 15.1561 62.334 15.1561ZM72.3418 13.2499V2.99988H74.2324V14.9999H72.5215L72.3418 13.2499ZM66.8418 10.8671V10.703C66.8418 10.0624 66.9173 9.47904 67.0684 8.953C67.2194 8.42175 67.4382 7.96602 67.7246 7.58582C68.0111 7.2004 68.36 6.90613 68.7715 6.703C69.1829 6.49467 69.6465 6.3905 70.1621 6.3905C70.6725 6.3905 71.1204 6.48946 71.5059 6.68738C71.8913 6.88529 72.2194 7.16915 72.4902 7.53894C72.7611 7.90352 72.9772 8.34102 73.1387 8.85144C73.3001 9.35665 73.4147 9.91915 73.4824 10.5389V11.0624C73.4147 11.6665 73.3001 12.2186 73.1387 12.7186C72.9772 13.2186 72.7611 13.6509 72.4902 14.0155C72.2194 14.3801 71.8887 14.6613 71.498 14.8593C71.1126 15.0572 70.6621 15.1561 70.1465 15.1561C69.6361 15.1561 69.1751 15.0494 68.7637 14.8358C68.3574 14.6223 68.0111 14.3228 67.7246 13.9374C67.4382 13.552 67.2194 13.0988 67.0684 12.578C66.9173 12.052 66.8418 11.4816 66.8418 10.8671ZM68.7246 10.703V10.8671C68.7246 11.2525 68.7585 11.6119 68.8262 11.9452C68.8991 12.2785 69.0111 12.5728 69.1621 12.828C69.3132 13.078 69.5085 13.2759 69.748 13.4218C69.9928 13.5624 70.2845 13.6327 70.623 13.6327C71.0501 13.6327 71.4017 13.5389 71.6777 13.3514C71.9538 13.1639 72.1699 12.9113 72.3262 12.5936C72.4876 12.2707 72.597 11.9113 72.6543 11.5155V10.1014C72.623 9.79415 72.5579 9.50769 72.459 9.24207C72.3652 8.97644 72.2376 8.74467 72.0762 8.54675C71.9147 8.34363 71.7142 8.18738 71.4746 8.078C71.2402 7.96342 70.9616 7.90613 70.6387 7.90613C70.2949 7.90613 70.0033 7.97904 69.7637 8.12488C69.5241 8.27071 69.3262 8.47123 69.1699 8.72644C69.0189 8.98165 68.9069 9.27852 68.834 9.61707C68.7611 9.95561 68.7246 10.3176 68.7246 10.703ZM78.2168 6.54675V14.9999H76.3262V6.54675H78.2168ZM76.2012 4.328C76.2012 4.04154 76.2949 3.80457 76.4824 3.61707C76.6751 3.42436 76.9408 3.328 77.2793 3.328C77.6126 3.328 77.8757 3.42436 78.0684 3.61707C78.2611 3.80457 78.3574 4.04154 78.3574 4.328C78.3574 4.60925 78.2611 4.84363 78.0684 5.03113C77.8757 5.21863 77.6126 5.31238 77.2793 5.31238C76.9408 5.31238 76.6751 5.21863 76.4824 5.03113C76.2949 4.84363 76.2012 4.60925 76.2012 4.328ZM82.1465 8.35144V14.9999H80.2637V6.54675H82.0371L82.1465 8.35144ZM81.8105 10.4608L81.2012 10.453C81.2064 9.85404 81.2897 9.30457 81.4512 8.80457C81.6178 8.30457 81.847 7.87488 82.1387 7.5155C82.4355 7.15613 82.7897 6.88009 83.2012 6.68738C83.6126 6.48946 84.071 6.3905 84.5762 6.3905C84.9824 6.3905 85.3496 6.44779 85.6777 6.56238C86.0111 6.67175 86.2949 6.85144 86.5293 7.10144C86.7689 7.35144 86.9512 7.67696 87.0762 8.078C87.2012 8.47384 87.2637 8.96082 87.2637 9.53894V14.9999H85.373V9.53113C85.373 9.12488 85.3132 8.80457 85.1934 8.57019C85.0788 8.33061 84.9095 8.16134 84.6855 8.06238C84.4668 7.95821 84.1934 7.90613 83.8652 7.90613C83.5423 7.90613 83.2533 7.97384 82.998 8.10925C82.7428 8.24467 82.5267 8.42957 82.3496 8.66394C82.1777 8.89832 82.0449 9.16915 81.9512 9.47644C81.8574 9.78373 81.8105 10.1119 81.8105 10.4608Z" fill="black" fill-opacity="0.54"/>
<path d="M16.5677 0.999878H1.3205C0.970279 0.999878 0.634406 1.13987 0.386765 1.38906C0.139124 1.63825 0 1.97622 0 2.32863V17.6711C0 18.0235 0.139124 18.3615 0.386765 18.6107C0.634406 18.8599 0.970279 18.9999 1.3205 18.9999H16.5677C16.9179 18.9999 17.2538 18.8599 17.5014 18.6107C17.7491 18.3615 17.8882 18.0235 17.8882 17.6711V2.32863C17.8882 1.97622 17.7491 1.63825 17.5014 1.38906C17.2538 1.13987 16.9179 0.999878 16.5677 0.999878ZM5.33168 16.3336H2.64224V7.73738H5.33168V16.3336ZM3.98509 6.54613C3.68002 6.5444 3.3823 6.45177 3.12949 6.27994C2.87669 6.10811 2.68013 5.86478 2.56463 5.58064C2.44913 5.29651 2.41986 4.98432 2.48052 4.68347C2.54118 4.38262 2.68904 4.10659 2.90546 3.89021C3.12187 3.67384 3.39713 3.52683 3.6965 3.46772C3.99586 3.40862 4.30592 3.44007 4.58754 3.55812C4.86916 3.67616 5.10972 3.8755 5.27886 4.13099C5.44799 4.38647 5.53813 4.68665 5.53789 4.99363C5.54077 5.19915 5.50249 5.40316 5.42535 5.59348C5.34821 5.78381 5.23378 5.95655 5.08887 6.10143C4.94397 6.2463 4.77156 6.36034 4.58193 6.43674C4.3923 6.51314 4.18932 6.55034 3.98509 6.54613ZM15.2447 16.3411H12.5565V11.6449C12.5565 10.2599 11.9714 9.83238 11.2162 9.83238C10.4186 9.83238 9.63602 10.4374 9.63602 11.6799V16.3411H6.94658V7.74363H9.53292V8.93488H9.5677C9.82733 8.40613 10.7366 7.50238 12.1242 7.50238C13.6248 7.50238 15.246 8.39863 15.246 11.0236L15.2447 16.3411Z" fill="#0A66C2"/>
</svg>
