<svg width="414" height="1112" viewBox="0 0 414 1112" fill="none" xmlns="http://www.w3.org/2000/svg">
<rect width="401.134" height="229.123" transform="matrix(0.597352 -0.801979 0.808949 0.587878 37.2109 977.304)" fill="url(#paint0_linear_459_1039)"/>
<rect width="360.473" height="275.552" transform="matrix(0.589462 -0.807796 0.81463 0.579981 184.66 946.83)" fill="url(#paint1_linear_459_1039)"/>
<rect width="251.303" height="229.15" transform="matrix(0.589462 -0.807796 0.81463 0.579981 254.402 742.002)" fill="url(#paint2_linear_459_1039)"/>
<rect width="251.303" height="229.15" transform="matrix(0.589462 -0.807796 0.81463 0.579981 0 882.529)" fill="url(#paint3_linear_459_1039)"/>
<rect width="401.134" height="229.123" transform="matrix(0.597352 -0.801979 0.808949 0.587878 173.211 175.304)" fill="url(#paint4_linear_459_1039)"/>
<rect width="360.473" height="275.552" transform="matrix(0.589462 -0.807796 0.81463 0.579981 320.66 144.83)" fill="url(#paint5_linear_459_1039)"/>
<rect width="251.303" height="229.15" transform="matrix(0.589462 -0.807796 0.81463 0.579981 390.402 -59.998)" fill="url(#paint6_linear_459_1039)"/>
<rect width="251.303" height="229.15" transform="matrix(0.589462 -0.807796 0.81463 0.579981 136 80.5293)" fill="url(#paint7_linear_459_1039)"/>
<defs>
<linearGradient id="paint0_linear_459_1039" x1="200.567" y1="0" x2="200.567" y2="229.123" gradientUnits="userSpaceOnUse">
<stop stop-color="#A365ED" stop-opacity="0.1"/>
<stop offset="1" stop-color="#C4C4C4" stop-opacity="0"/>
</linearGradient>
<linearGradient id="paint1_linear_459_1039" x1="180.236" y1="0" x2="180.236" y2="275.552" gradientUnits="userSpaceOnUse">
<stop stop-color="#A365ED" stop-opacity="0.1"/>
<stop offset="1" stop-color="#C4C4C4" stop-opacity="0"/>
</linearGradient>
<linearGradient id="paint2_linear_459_1039" x1="125.652" y1="0" x2="125.652" y2="229.15" gradientUnits="userSpaceOnUse">
<stop stop-color="#A365ED" stop-opacity="0.1"/>
<stop offset="1" stop-color="#C4C4C4" stop-opacity="0"/>
</linearGradient>
<linearGradient id="paint3_linear_459_1039" x1="125.652" y1="0" x2="125.652" y2="229.15" gradientUnits="userSpaceOnUse">
<stop stop-color="#A365ED" stop-opacity="0.1"/>
<stop offset="1" stop-color="#C4C4C4" stop-opacity="0"/>
</linearGradient>
<linearGradient id="paint4_linear_459_1039" x1="200.567" y1="0" x2="200.567" y2="229.123" gradientUnits="userSpaceOnUse">
<stop stop-color="#A365ED" stop-opacity="0.1"/>
<stop offset="1" stop-color="#C4C4C4" stop-opacity="0"/>
</linearGradient>
<linearGradient id="paint5_linear_459_1039" x1="180.236" y1="0" x2="180.236" y2="275.552" gradientUnits="userSpaceOnUse">
<stop stop-color="#A365ED" stop-opacity="0.1"/>
<stop offset="1" stop-color="#C4C4C4" stop-opacity="0"/>
</linearGradient>
<linearGradient id="paint6_linear_459_1039" x1="125.652" y1="0" x2="125.652" y2="229.15" gradientUnits="userSpaceOnUse">
<stop stop-color="#A365ED" stop-opacity="0.1"/>
<stop offset="1" stop-color="#C4C4C4" stop-opacity="0"/>
</linearGradient>
<linearGradient id="paint7_linear_459_1039" x1="125.652" y1="0" x2="125.652" y2="229.15" gradientUnits="userSpaceOnUse">
<stop stop-color="#A365ED" stop-opacity="0.1"/>
<stop offset="1" stop-color="#C4C4C4" stop-opacity="0"/>
</linearGradient>
</defs>
</svg>
