<svg width="16" height="17" viewBox="0 0 16 17" fill="none" xmlns="http://www.w3.org/2000/svg">
<path fill-rule="evenodd" clip-rule="evenodd" d="M2.0785 8.53454C1.97383 8.32227 1.97383 8.06478 2.0785 7.85252C3.33987 5.30025 5.66994 3.08789 8 3.08789C10.3301 3.08789 12.6601 5.30025 13.9215 7.85325C14.0262 8.06551 14.0262 8.323 13.9215 8.53527C12.6601 11.0875 10.3301 13.2999 8 13.2999C5.66994 13.2999 3.33987 11.0875 2.0785 8.53454Z" stroke="white" stroke-linecap="round" stroke-linejoin="round"/>
<path d="M9.41421 6.74957C10.1953 7.54718 10.1953 8.84036 9.41421 9.63797C8.63317 10.4356 7.36683 10.4356 6.58579 9.63797C5.80474 8.84036 5.80474 7.54718 6.58579 6.74957C7.36683 5.95197 8.63317 5.95197 9.41421 6.74957" stroke="white" stroke-linecap="round" stroke-linejoin="round"/>
</svg>
