<svg width="20" height="22" viewBox="0 0 20 22" fill="none" xmlns="http://www.w3.org/2000/svg">
<path d="M10 17.9601C10.1978 17.9601 10.3911 17.9036 10.5556 17.7977C10.72 17.6919 10.8482 17.5414 10.9239 17.3654C10.9996 17.1894 11.0194 16.9957 10.9808 16.8089C10.9422 16.622 10.847 16.4504 10.7071 16.3157C10.5673 16.181 10.3891 16.0892 10.1951 16.052C10.0011 16.0149 9.80004 16.034 9.61732 16.1069C9.43459 16.1798 9.27841 16.3032 9.16853 16.4616C9.05865 16.62 9 16.8063 9 16.9968C9 17.2523 9.10536 17.4973 9.29289 17.6779C9.48043 17.8586 9.73478 17.9601 10 17.9601ZM15 17.9601C15.1978 17.9601 15.3911 17.9036 15.5556 17.7977C15.72 17.6919 15.8482 17.5414 15.9239 17.3654C15.9996 17.1894 16.0194 16.9957 15.9808 16.8089C15.9422 16.622 15.847 16.4504 15.7071 16.3157C15.5673 16.181 15.3891 16.0892 15.1951 16.052C15.0011 16.0149 14.8 16.034 14.6173 16.1069C14.4346 16.1798 14.2784 16.3032 14.1685 16.4616C14.0586 16.62 14 16.8063 14 16.9968C14 17.2523 14.1054 17.4973 14.2929 17.6779C14.4804 17.8586 14.7348 17.9601 15 17.9601ZM15 14.107C15.1978 14.107 15.3911 14.0505 15.5556 13.9447C15.72 13.8388 15.8482 13.6884 15.9239 13.5124C15.9996 13.3364 16.0194 13.1427 15.9808 12.9558C15.9422 12.769 15.847 12.5973 15.7071 12.4626C15.5673 12.3279 15.3891 12.2362 15.1951 12.199C15.0011 12.1618 14.8 12.1809 14.6173 12.2538C14.4346 12.3267 14.2784 12.4502 14.1685 12.6086C14.0586 12.767 14 12.9532 14 13.1437C14 13.3992 14.1054 13.6442 14.2929 13.8249C14.4804 14.0055 14.7348 14.107 15 14.107ZM10 14.107C10.1978 14.107 10.3911 14.0505 10.5556 13.9447C10.72 13.8388 10.8482 13.6884 10.9239 13.5124C10.9996 13.3364 11.0194 13.1427 10.9808 12.9558C10.9422 12.769 10.847 12.5973 10.7071 12.4626C10.5673 12.3279 10.3891 12.2362 10.1951 12.199C10.0011 12.1618 9.80004 12.1809 9.61732 12.2538C9.43459 12.3267 9.27841 12.4502 9.16853 12.6086C9.05865 12.767 9 12.9532 9 13.1437C9 13.3992 9.10536 13.6442 9.29289 13.8249C9.48043 14.0055 9.73478 14.107 10 14.107ZM17 2.54786H16V1.5846C16 1.32913 15.8946 1.08412 15.7071 0.903471C15.5196 0.722824 15.2652 0.621338 15 0.621338C14.7348 0.621338 14.4804 0.722824 14.2929 0.903471C14.1054 1.08412 14 1.32913 14 1.5846V2.54786H6V1.5846C6 1.32913 5.89464 1.08412 5.70711 0.903471C5.51957 0.722824 5.26522 0.621338 5 0.621338C4.73478 0.621338 4.48043 0.722824 4.29289 0.903471C4.10536 1.08412 4 1.32913 4 1.5846V2.54786H3C2.20435 2.54786 1.44129 2.85232 0.87868 3.39426C0.316071 3.9362 0 4.67123 0 5.43765V18.9233C0 19.6897 0.316071 20.4248 0.87868 20.9667C1.44129 21.5087 2.20435 21.8131 3 21.8131H17C17.7956 21.8131 18.5587 21.5087 19.1213 20.9667C19.6839 20.4248 20 19.6897 20 18.9233V5.43765C20 4.67123 19.6839 3.9362 19.1213 3.39426C18.5587 2.85232 17.7956 2.54786 17 2.54786ZM18 18.9233C18 19.1788 17.8946 19.4238 17.7071 19.6045C17.5196 19.7851 17.2652 19.8866 17 19.8866H3C2.73478 19.8866 2.48043 19.7851 2.29289 19.6045C2.10536 19.4238 2 19.1788 2 18.9233V10.254H18V18.9233ZM18 8.32744H2V5.43765C2 5.18218 2.10536 4.93717 2.29289 4.75652C2.48043 4.57587 2.73478 4.47439 3 4.47439H4V5.43765C4 5.69312 4.10536 5.93813 4.29289 6.11878C4.48043 6.29943 4.73478 6.40091 5 6.40091C5.26522 6.40091 5.51957 6.29943 5.70711 6.11878C5.89464 5.93813 6 5.69312 6 5.43765V4.47439H14V5.43765C14 5.69312 14.1054 5.93813 14.2929 6.11878C14.4804 6.29943 14.7348 6.40091 15 6.40091C15.2652 6.40091 15.5196 6.29943 15.7071 6.11878C15.8946 5.93813 16 5.69312 16 5.43765V4.47439H17C17.2652 4.47439 17.5196 4.57587 17.7071 4.75652C17.8946 4.93717 18 5.18218 18 5.43765V8.32744ZM5 14.107C5.19778 14.107 5.39112 14.0505 5.55557 13.9447C5.72002 13.8388 5.84819 13.6884 5.92388 13.5124C5.99957 13.3364 6.01937 13.1427 5.98079 12.9558C5.9422 12.769 5.84696 12.5973 5.70711 12.4626C5.56725 12.3279 5.38907 12.2362 5.19509 12.199C5.00111 12.1618 4.80004 12.1809 4.61732 12.2538C4.43459 12.3267 4.27841 12.4502 4.16853 12.6086C4.05865 12.767 4 12.9532 4 13.1437C4 13.3992 4.10536 13.6442 4.29289 13.8249C4.48043 14.0055 4.73478 14.107 5 14.107ZM5 17.9601C5.19778 17.9601 5.39112 17.9036 5.55557 17.7977C5.72002 17.6919 5.84819 17.5414 5.92388 17.3654C5.99957 17.1894 6.01937 16.9957 5.98079 16.8089C5.9422 16.622 5.84696 16.4504 5.70711 16.3157C5.56725 16.181 5.38907 16.0892 5.19509 16.052C5.00111 16.0149 4.80004 16.034 4.61732 16.1069C4.43459 16.1798 4.27841 16.3032 4.16853 16.4616C4.05865 16.62 4 16.8063 4 16.9968C4 17.2523 4.10536 17.4973 4.29289 17.6779C4.48043 17.8586 4.73478 17.9601 5 17.9601Z" fill="#2D0656"/>
</svg>
