<svg width="7" height="7" viewBox="0 0 7 7" fill="none" xmlns="http://www.w3.org/2000/svg">
<mask id="path-1-inside-1_631_163" fill="white">
<path d="M2.5 8.74229e-08C2.77614 9.94935e-08 3 0.223858 3 0.5V2.5C3 2.77614 2.77614 3 2.5 3H0.5C0.223858 3 -1.20706e-08 2.77614 0 2.5L8.74206e-08 0.5C9.94912e-08 0.223858 0.223858 -1.20706e-08 0.5 0L2.5 8.74229e-08Z"/>
<path d="M2.5 4C2.77614 4 3 4.22386 3 4.5V6.5C3 6.77614 2.77614 7 2.5 7H0.5C0.223858 7 -1.20706e-08 6.77614 0 6.5L8.74206e-08 4.5C9.94912e-08 4.22386 0.223858 4 0.5 4L2.5 4Z"/>
<path d="M6.5 8.74229e-08C6.77614 9.94935e-08 7 0.223858 7 0.5V2.5C7 2.77614 6.77614 3 6.5 3H4.5C4.22386 3 4 2.77614 4 2.5V0.5C4 0.223858 4.22386 -1.20706e-08 4.5 0L6.5 8.74229e-08Z"/>
<path d="M6.5 4C6.77614 4 7 4.22386 7 4.5V6.5C7 6.77614 6.77614 7 6.5 7H4.5C4.22386 7 4 6.77614 4 6.5V4.5C4 4.22386 4.22386 4 4.5 4L6.5 4Z"/>
</mask>
<path d="M2.5 8.74229e-08C2.77614 9.94935e-08 3 0.223858 3 0.5V2.5C3 2.77614 2.77614 3 2.5 3H0.5C0.223858 3 -1.20706e-08 2.77614 0 2.5L8.74206e-08 0.5C9.94912e-08 0.223858 0.223858 -1.20706e-08 0.5 0L2.5 8.74229e-08Z" stroke="#2D0656" stroke-width="1.4" stroke-linejoin="round" mask="url(#path-1-inside-1_631_163)"/>
<path d="M2.5 4C2.77614 4 3 4.22386 3 4.5V6.5C3 6.77614 2.77614 7 2.5 7H0.5C0.223858 7 -1.20706e-08 6.77614 0 6.5L8.74206e-08 4.5C9.94912e-08 4.22386 0.223858 4 0.5 4L2.5 4Z" stroke="#2D0656" stroke-width="1.4" stroke-linejoin="round" mask="url(#path-1-inside-1_631_163)"/>
<path d="M6.5 8.74229e-08C6.77614 9.94935e-08 7 0.223858 7 0.5V2.5C7 2.77614 6.77614 3 6.5 3H4.5C4.22386 3 4 2.77614 4 2.5V0.5C4 0.223858 4.22386 -1.20706e-08 4.5 0L6.5 8.74229e-08Z" stroke="#2D0656" stroke-width="1.4" stroke-linejoin="round" mask="url(#path-1-inside-1_631_163)"/>
<path d="M6.5 4C6.77614 4 7 4.22386 7 4.5V6.5C7 6.77614 6.77614 7 6.5 7H4.5C4.22386 7 4 6.77614 4 6.5V4.5C4 4.22386 4.22386 4 4.5 4L6.5 4Z" stroke="#2D0656" stroke-width="1.4" stroke-linejoin="round" mask="url(#path-1-inside-1_631_163)"/>
</svg>
