<svg width="179" height="161" viewBox="0 0 179 161" fill="none" xmlns="http://www.w3.org/2000/svg">
<rect x="6.69824" y="70.7762" width="18.4995" height="1.71686" rx="0.858432" transform="rotate(-16.3498 6.69824 70.7762)" fill="url(#paint0_linear_612_146)"/>
<rect x="3.12402" y="76.9366" width="18.4995" height="1.71686" rx="0.858432" transform="rotate(-16.3498 3.12402 76.9366)" fill="url(#paint1_linear_612_146)"/>
<rect x="41.2676" y="6.8811" width="18.4995" height="1.71686" rx="0.858432" transform="rotate(69.1445 41.2676 6.8811)" fill="url(#paint2_linear_612_146)"/>
<rect x="43.7754" y="0.659424" width="18.4995" height="1.71686" rx="0.858432" transform="rotate(69.1445 43.7754 0.659424)" fill="url(#paint3_linear_612_146)"/>
<path fill-rule="evenodd" clip-rule="evenodd" d="M110 156.836C148.108 156.836 179 125.944 179 87.8363C179 49.7287 148.108 18.8363 110 18.8363C71.8924 18.8363 41 49.7287 41 87.8363C41 104.449 46.8712 119.691 56.6519 131.6C54.188 140.243 49.4776 153.418 44.1354 158.404C37.6676 164.441 64.6335 156.962 77.7971 148.876C87.4105 153.959 98.3692 156.836 110 156.836Z" fill="url(#paint4_linear_612_146)"/>
<path d="M78.48 86V63.04H69.84V59.32H91.52V63.04H82.88V86H78.48ZM106.489 86.44C103.849 86.44 101.595 85.9333 99.7288 84.92C97.8888 83.9067 96.4888 82.3867 95.5288 80.36C94.5688 78.3333 94.0888 75.7733 94.0888 72.68C94.0888 68.12 95.1421 64.68 97.2487 62.36C99.3821 60.04 102.462 58.88 106.489 58.88C109.155 58.88 111.409 59.3867 113.249 60.4C115.089 61.4133 116.489 62.9467 117.449 65C118.435 67.0267 118.929 69.5867 118.929 72.68C118.929 77.2133 117.862 80.64 115.729 82.96C113.622 85.28 110.542 86.44 106.489 86.44ZM106.489 82.64C108.275 82.64 109.742 82.3067 110.889 81.64C112.062 80.9467 112.929 79.8667 113.489 78.4C114.075 76.9333 114.369 75.0133 114.369 72.64C114.369 70.2933 114.075 68.4 113.489 66.96C112.929 65.4933 112.062 64.4267 110.889 63.76C109.742 63.0667 108.275 62.72 106.489 62.72C104.729 62.72 103.262 63.0667 102.089 63.76C100.915 64.4533 100.035 65.5333 99.4488 67C98.8888 68.44 98.6088 70.3333 98.6088 72.68C98.6088 75.0267 98.8888 76.9333 99.4488 78.4C100.035 79.8667 100.915 80.9467 102.089 81.64C103.262 82.3067 104.729 82.64 106.489 82.64ZM128.552 76.44V86H124.152V59.32H134.712C137.752 59.32 140.099 60.0267 141.752 61.44C143.432 62.8533 144.272 64.96 144.272 67.76C144.272 70.56 143.432 72.7067 141.752 74.2C140.099 75.6933 137.752 76.44 134.712 76.44H128.552ZM128.552 72.68H134.152C135.299 72.68 136.232 72.56 136.952 72.32C137.672 72.0533 138.232 71.6933 138.632 71.24C139.032 70.76 139.299 70.24 139.432 69.68C139.592 69.12 139.672 68.5333 139.672 67.92C139.672 67.3067 139.592 66.7067 139.432 66.12C139.299 65.5333 139.032 65.0133 138.632 64.56C138.232 64.08 137.672 63.7067 136.952 63.44C136.232 63.1733 135.299 63.04 134.152 63.04H128.552V72.68ZM78.48 121V98.04H69.84V94.32H91.52V98.04H82.88V121H78.48ZM91.5194 121V94.32H95.9594V121H91.5194ZM102.662 111.44V121H98.2616V94.32H108.822C111.862 94.32 114.208 95.0267 115.862 96.44C117.542 97.8533 118.382 99.96 118.382 102.76C118.382 105.56 117.542 107.707 115.862 109.2C114.208 110.693 111.862 111.44 108.822 111.44H102.662ZM102.662 107.68H108.262C109.408 107.68 110.342 107.56 111.062 107.32C111.782 107.053 112.342 106.693 112.742 106.24C113.142 105.76 113.408 105.24 113.542 104.68C113.702 104.12 113.782 103.533 113.782 102.92C113.782 102.307 113.702 101.707 113.542 101.12C113.408 100.533 113.142 100.013 112.742 99.56C112.342 99.08 111.782 98.7067 111.062 98.44C110.342 98.1733 109.408 98.04 108.262 98.04H102.662V107.68ZM127.812 121.44C126.479 121.44 125.306 121.36 124.292 121.2C123.279 121.067 122.359 120.84 121.532 120.52C120.706 120.2 119.852 119.813 118.972 119.36V114.96C120.012 115.787 121.266 116.467 122.732 117C124.226 117.533 125.826 117.8 127.532 117.8C129.186 117.8 130.412 117.467 131.212 116.8C132.039 116.107 132.452 115.16 132.452 113.96C132.452 113.027 132.146 112.28 131.532 111.72C130.946 111.133 130.159 110.64 129.172 110.24C128.186 109.84 127.132 109.44 126.012 109.04C125.159 108.72 124.319 108.387 123.492 108.04C122.666 107.667 121.919 107.213 121.252 106.68C120.586 106.12 120.052 105.413 119.652 104.56C119.252 103.707 119.052 102.653 119.052 101.4C119.052 100.52 119.226 99.6267 119.572 98.72C119.919 97.8133 120.439 97 121.132 96.28C121.852 95.5333 122.786 94.9467 123.932 94.52C125.106 94.0667 126.506 93.84 128.132 93.84C129.199 93.84 130.119 93.9067 130.892 94.04C131.692 94.1733 132.439 94.3867 133.132 94.68C133.852 94.9467 134.626 95.28 135.452 95.68V100C134.786 99.5733 134.106 99.1733 133.412 98.8C132.746 98.4267 132.012 98.12 131.212 97.88C130.412 97.64 129.519 97.5067 128.532 97.48C127.412 97.4533 126.492 97.5867 125.772 97.88C125.052 98.1733 124.506 98.5867 124.132 99.12C123.759 99.6533 123.572 100.267 123.572 100.96C123.572 101.893 123.799 102.64 124.252 103.2C124.732 103.733 125.399 104.187 126.252 104.56C127.106 104.907 128.092 105.253 129.212 105.6C130.199 105.92 131.159 106.28 132.092 106.68C133.026 107.08 133.852 107.573 134.572 108.16C135.292 108.72 135.866 109.427 136.292 110.28C136.746 111.133 136.972 112.187 136.972 113.44C136.972 114.827 136.652 116.133 136.012 117.36C135.399 118.56 134.412 119.547 133.052 120.32C131.719 121.067 129.972 121.44 127.812 121.44ZM141.43 114L140.95 94.32H145.03L144.59 114H141.43ZM140.95 121V117.24H145.07V121H140.95Z" fill="white"/>
<path d="M49.1147 44.3204L41.684 57.3505C42.1777 58.1511 53.477 64.3558 57.1823 56.9798C59.9106 51.5486 52.9577 46.3706 49.1147 44.3204Z" stroke="#2D0656" stroke-linejoin="round"/>
<path d="M15.7329 54.0628C22.8999 51.2641 34.7926 54.7293 39.9411 56.9325L47.9233 43.3399C42.5367 40.465 34.9557 30.0699 33.582 22.7649L15.7329 54.0628Z" stroke="#2D0656" stroke-linejoin="round"/>
<path d="M21.8827 43.1804C19.698 40.1229 19.4029 34.9904 26.5889 34.928" stroke="#2D0656" stroke-linejoin="round"/>
<line x1="12.7731" y1="44.7683" x2="6.74096" y2="46.5156" stroke="black" stroke-linecap="round"/>
<line x1="24.1885" y1="26.3328" x2="21.9079" y2="20.4814" stroke="black" stroke-linecap="round"/>
<line x1="14.7376" y1="33.2697" x2="9.35721" y2="30.0307" stroke="black" stroke-linecap="round"/>
<line x1="13.6487" y1="39.1443" x2="11.18" y2="38.9703" stroke="black" stroke-linecap="round"/>
<line x1="19.7324" y1="30.1143" x2="18.4141" y2="28.0199" stroke="black" stroke-linecap="round"/>
<defs>
<linearGradient id="paint0_linear_612_146" x1="15.948" y1="70.7762" x2="27.1816" y2="70.7762" gradientUnits="userSpaceOnUse">
<stop stop-color="#891AFF"/>
<stop offset="1" stop-color="#22D5FF"/>
</linearGradient>
<linearGradient id="paint1_linear_612_146" x1="12.3738" y1="76.9366" x2="23.6074" y2="76.9366" gradientUnits="userSpaceOnUse">
<stop stop-color="#891AFF"/>
<stop offset="1" stop-color="#22D5FF"/>
</linearGradient>
<linearGradient id="paint2_linear_612_146" x1="50.5173" y1="6.8811" x2="61.751" y2="6.8811" gradientUnits="userSpaceOnUse">
<stop stop-color="#891AFF"/>
<stop offset="1" stop-color="#22D5FF"/>
</linearGradient>
<linearGradient id="paint3_linear_612_146" x1="53.0251" y1="0.659424" x2="64.2588" y2="0.659424" gradientUnits="userSpaceOnUse">
<stop stop-color="#891AFF"/>
<stop offset="1" stop-color="#22D5FF"/>
</linearGradient>
<linearGradient id="paint4_linear_612_146" x1="41" y1="19.2175" x2="163.278" y2="19.2175" gradientUnits="userSpaceOnUse">
<stop stop-color="#891AFF"/>
<stop offset="1" stop-color="#3EA3FF"/>
</linearGradient>
</defs>
</svg>
