<svg width="14" height="14" viewBox="0 0 14 14" fill="none" xmlns="http://www.w3.org/2000/svg">
<path d="M9.39708 11.7852C9.13122 11.7852 8.85756 11.7093 8.63353 11.5852C8.49103 11.5066 8.27409 11.4094 8.02242 11.2974C7.69204 11.1499 7.31771 10.9833 6.96465 10.7919C6.72503 10.6622 6.49249 10.5785 6.24577 10.4906C5.7729 10.3219 5.28443 10.1468 4.78461 9.64767C4.06502 8.92808 3.6276 7.99013 3.55316 7.00752C3.47659 5.99655 3.79562 5.07703 4.45282 4.41983C5.10932 3.76334 6.03309 3.44785 7.0554 3.53222C8.0295 3.61233 8.9951 4.06606 9.70548 4.77644C10.2067 5.27767 10.391 5.77819 10.569 6.2617C10.6604 6.50912 10.7462 6.74308 10.8753 6.98058C11.0695 7.33789 11.2219 7.70017 11.3566 8.01991C11.4566 8.2567 11.5424 8.46159 11.6197 8.59983C11.872 9.0564 11.9259 9.71998 11.541 10.1049L10.1394 11.5066C9.94227 11.7036 9.67357 11.7852 9.39708 11.7852ZM6.73495 4.22841C6.03096 4.22841 5.40566 4.47017 4.95406 4.92177C4.44573 5.43009 4.19902 6.15252 4.25999 6.95435C4.32096 7.75618 4.69529 8.55517 5.28656 9.14715C5.67365 9.53424 6.04939 9.66823 6.48469 9.8242C6.74559 9.91778 7.0157 10.0142 7.30283 10.1702C7.63107 10.3481 7.99264 10.5098 8.31096 10.6516C8.57682 10.7699 8.80723 10.8727 8.97596 10.9663C9.20779 11.0946 9.52895 11.1138 9.63671 11.0067L11.0383 9.60513C11.1461 9.49737 11.1262 9.17621 10.9979 8.94439C10.9029 8.77282 10.81 8.55233 10.7023 8.29711C10.5739 7.99226 10.4286 7.647 10.2507 7.32017C10.0975 7.0373 9.99827 6.76789 9.90257 6.50771C9.73738 6.05823 9.59488 5.67043 9.20353 5.27909C8.61014 4.68569 7.80547 4.30711 6.99656 4.23976C6.90865 4.23196 6.82144 4.22841 6.73495 4.22841Z" fill="white"/>
<path d="M10.2863 12.4138C10.1955 12.4138 10.1048 12.3791 10.0353 12.3103C9.89708 12.1721 9.89708 11.9473 10.0353 11.8091L11.8403 10.0041C11.9786 9.86583 12.2033 9.86583 12.3416 10.0041C12.4798 10.1423 12.4798 10.3671 12.3416 10.5053L10.5366 12.3103C10.4678 12.3791 10.377 12.4138 10.2863 12.4138Z" fill="white"/>
<path d="M11.09 12.7145C10.9993 12.7145 10.9085 12.6797 10.839 12.611C10.7008 12.4727 10.7008 12.248 10.839 12.1097L12.1421 10.8067C12.2803 10.6684 12.5051 10.6684 12.6433 10.8067C12.7816 10.9449 12.7816 11.1697 12.6433 11.3079L11.3403 12.611C11.2715 12.6797 11.1808 12.7145 11.09 12.7145Z" fill="white"/>
<path d="M11.8918 13.1156C11.801 13.1156 11.7103 13.0808 11.6408 13.0121C11.5025 12.8738 11.5025 12.6491 11.6408 12.5108L12.5433 11.6083C12.6815 11.4701 12.9063 11.4701 13.0445 11.6083C13.1828 11.7466 13.1828 11.9713 13.0445 12.1096L12.142 13.0121C12.0733 13.0808 11.9825 13.1156 11.8918 13.1156Z" fill="white"/>
<path d="M9.68473 4.2928C9.59399 4.2928 9.50324 4.25806 9.43376 4.18929C9.29552 4.05105 9.29552 3.82631 9.43376 3.68806L11.1884 1.9334C11.3267 1.79515 11.5514 1.79515 11.6897 1.9334C11.8279 2.07164 11.8279 2.29638 11.6897 2.43463L9.93499 4.18929C9.86623 4.25806 9.77548 4.2928 9.68473 4.2928Z" fill="white"/>
<path d="M2.21501 11.7624C2.12426 11.7624 2.03351 11.7277 1.96404 11.6589C1.82579 11.5207 1.82579 11.2959 1.96404 11.1577L3.7187 9.403C3.85695 9.26475 4.08169 9.26475 4.21993 9.403C4.35818 9.54125 4.35818 9.76599 4.21993 9.90423L2.46527 11.6589C2.3965 11.7277 2.30575 11.7624 2.21501 11.7624Z" fill="white"/>
<path d="M2.83582 7.23129H0.354478C0.158806 7.23129 0 7.07249 0 6.87682C0 6.68114 0.158806 6.52234 0.354478 6.52234H2.83582C3.03149 6.52234 3.1903 6.68114 3.1903 6.87682C3.1903 7.07249 3.03149 7.23129 2.83582 7.23129Z" fill="white"/>
<path d="M6.87792 3.1903C6.68224 3.1903 6.52344 3.03149 6.52344 2.83582V0.354478C6.52344 0.158806 6.68224 0 6.87792 0C7.07359 0 7.23239 0.158806 7.23239 0.354478V2.83582C7.23239 3.03149 7.07359 3.1903 6.87792 3.1903Z" fill="white"/>
<path d="M4.07008 4.39245C3.97933 4.39245 3.88859 4.35771 3.81911 4.28895L2.01482 2.48394C1.87657 2.3457 1.87657 2.12096 2.01482 1.98271C2.15306 1.84447 2.3778 1.84447 2.51605 1.98271L4.32105 3.78771C4.4593 3.92596 4.4593 4.1507 4.32105 4.28895C4.25157 4.35842 4.16083 4.39245 4.07008 4.39245Z" fill="white"/>
</svg>
