<svg width="14" height="14" viewBox="0 0 14 14" fill="none" xmlns="http://www.w3.org/2000/svg">
<path fill-rule="evenodd" clip-rule="evenodd" d="M7 6C8.10457 6 9 5.10457 9 4C9 2.89543 8.10457 2 7 2C5.89543 2 5 2.89543 5 4C5 5.10457 5.89543 6 7 6ZM7 8C9.20914 8 11 6.20914 11 4C11 1.79086 9.20914 0 7 0C4.79086 0 3 1.79086 3 4C3 6.20914 4.79086 8 7 8Z" fill="#B4B4B4"/>
<path fill-rule="evenodd" clip-rule="evenodd" d="M7 9C4.23858 9 2 11.2386 2 14H0C0 10.134 3.13401 7 7 7C10.866 7 14 10.134 14 14H12C12 11.2386 9.76142 9 7 9Z" fill="#B4B4B4"/>
</svg>
